#define max_pressed_width 10
#define max_pressed_height 10
static unsigned char max_pressed_bits[] = {
   0xff, 0x03, 0xff, 0x03, 0x03, 0x03, 0x03, 0x03, 0x03, 0x03, 0x03, 0x03,
   0x03, 0x03, 0x03, 0x03, 0xff, 0x03, 0xff, 0x03 };
