#define max_toggled_width 10
#define max_toggled_height 10
static unsigned char max_toggled_bits[] = {
   0xf0, 0x03, 0xf0, 0x03, 0x30, 0x03, 0x30, 0x03, 0xf7, 0x03, 0xf7, 0x03,
   0x03, 0x00, 0x33, 0x00, 0x3f, 0x00, 0x3f, 0x00 };
